<svg width="30" height="44" viewBox="0 0 30 44" fill="none" xmlns="http://www.w3.org/2000/svg">
<path d="M11 15.7295L19 8.22949L11 0.729492" stroke="black" stroke-width="2"/>
<path d="M2.87564 27.917C1.64689 25.9217 1 23.6584 1 21.3545C1 19.0506 1.64689 16.7872 2.87564 14.792C4.1044 12.7967 5.87173 11.1399 8 9.98791C10.1283 8.83595 12.5425 8.22949 15 8.22949" stroke="black" stroke-width="2" stroke-linecap="round"/>
<path d="M19 27.4795L11 34.9795L19 42.4795" stroke="black" stroke-width="2"/>
<path d="M27.1244 15.292C28.3531 17.2872 29 19.5506 29 21.8545C29 24.1584 28.3531 26.4217 27.1244 28.417C25.8956 30.4122 24.1283 32.0691 22 33.2211C19.8717 34.373 17.4575 34.9795 15 34.9795" stroke="black" stroke-width="2" stroke-linecap="round"/>
</svg>
